<?xml version="1.0" encoding="UTF-8"?>
<svg version="1.1" xmlns="http://www.w3.org/2000/svg" width="512" height="512">
<path d="M0 0 C0.81903809 0.19335938 1.63807617 0.38671875 2.48193359 0.5859375 C34.52759116 8.40872375 62.84096507 24.47219063 86 48 C89.08003607 46.64371514 90.94454467 45.17552883 93.1875 42.6875 C121.62695517 13.77753914 164.40743741 -2.9272311 204.64477539 -3.38037109 C205.99235137 -3.38082291 207.33992985 -3.37899101 208.6875 -3.375 C209.38455048 -3.37445618 210.08160095 -3.37391235 210.79977417 -3.37335205 C244.11263289 -3.25433845 270.93936531 10.00538611 294.4921875 33.484375 C323.79663384 64.34077021 336.01418889 108.05856821 335.24609375 149.8203125 C334.08687445 185.81955077 325.75071431 228.24368208 305.74363708 258.92677307 C301.8039202 265.19612419 301.31573756 270.22573194 301.43359375 277.53515625 C301.42795914 278.61325058 301.42232452 279.69134491 301.41651917 280.80210876 C301.4001569 284.22268984 301.41554101 287.6419653 301.4375 291.0625 C301.45414117 294.48648147 301.46312966 297.90960756 301.44776917 301.33360291 C301.43855125 303.45613395 301.44744378 305.5788475 301.47740173 307.70118713 C301.45179051 314.65011465 300.45137699 320.37673779 295.51707458 325.55677795 C290.98932368 329.5145306 287.22422986 330.37896227 281.40625 330.265625 C276.18851396 329.68964115 272.47796606 327.83091318 269.16796875 323.73046875 C267.68691675 321.52796753 266.30371319 319.31112793 265 317 C263.72769531 318.39798828 263.72769531 318.39798828 262.4296875 319.82421875 C244.11913995 339.78738085 223.23088763 358.84211998 200 373 C199.34 373 198.68 373 198 373 C198.02618408 373.8971875 198.05236816 374.794375 198.0793457 375.71875 C198.16509673 379.08105845 198.22749941 382.44218794 198.2746582 385.80517578 C198.29964236 387.25425674 198.33364269 388.70321375 198.37719727 390.15185547 C198.8356162 405.80281737 198.8356162 405.80281737 193 412 C188.77724765 415.74015208 183.47340291 416.12515403 178 416 C171.59386386 414.85445829 168.92369636 411.97721896 165 407 C164.99589111 407.8971875 164.99178223 408.794375 164.98754883 409.71875 C164.96040747 413.08167313 164.91115877 416.44282221 164.84741211 419.80517578 C164.82436699 421.25395653 164.80986831 422.7029016 164.80444336 424.15185547 C164.73214434 440.29122038 164.73214434 440.29122038 159 446 C154.65266246 449.11405416 150.40131341 450.69416947 145.015625 450.38671875 C139.99819215 449.42407175 136.16477856 447.19543063 132.625 443.5625 C129.68399094 438.92475495 128.75057331 435.31680861 128.8046875 429.82421875 C128.81113281 428.66728516 128.81757813 427.51035156 128.82421875 426.31835938 C128.84097656 425.12017578 128.85773438 423.92199219 128.875 422.6875 C128.88402344 421.46998047 128.89304687 420.25246094 128.90234375 418.99804688 C128.92586963 415.99849726 128.95874347 412.99934956 129 410 C127.86739746 410.42297363 127.86739746 410.42297363 126.71191406 410.85449219 C123.22540609 412.15514182 119.73771301 413.45258534 116.25 414.75 C115.06277344 415.1934375 113.87554687 415.636875 112.65234375 416.09375 C110.26670688 416.98021616 107.87799963 417.85846221 105.48632812 418.72851562 C103.23264566 419.55044688 100.98585704 420.391648 98.74804688 421.25585938 C87.05377817 425.56974517 79.25723128 422.72204184 67.84545898 418.55444336 C65.83754966 417.82164206 63.82476175 417.10393374 61.81054688 416.38867188 C53.05569461 413.25312718 44.50551147 409.7602529 36 406 C36.0621167 407.61962646 36.0621167 407.61962646 36.12548828 409.27197266 C36.56316585 422.59625097 36.56316585 422.59625097 32 428 C26.38537623 432.44491049 22.11156004 433.59263 15 433 C8.8034923 430.86886464 4.85245507 427.75099318 1.91064453 421.79418945 C0.77829539 418.31972942 0.77462117 415.3835283 0.8046875 411.73046875 C0.8075174 411.04946609 0.81034729 410.36846344 0.81326294 409.66682434 C0.82439475 407.50686545 0.84948543 405.34733206 0.875 403.1875 C0.88503889 401.71680289 0.89416315 400.24609924 0.90234375 398.77539062 C0.92431087 395.18345714 0.9587918 391.59177015 1 388 C0.23953369 387.70432129 -0.52093262 387.40864258 -1.30444336 387.10400391 C-21.56361139 378.8065709 -39.85220764 363.38781131 -57 350 C-57.0093457 350.8470752 -57.01869141 351.69415039 -57.02832031 352.56689453 C-57.07252612 355.73194352 -57.13422527 358.89604812 -57.20751953 362.06054688 C-57.23561623 363.42598164 -57.25688677 364.79157564 -57.27099609 366.15722656 C-57.29257982 368.12854038 -57.3413546 370.09949631 -57.390625 372.0703125 C-57.41157227 373.25383301 -57.43251953 374.43735352 -57.45410156 375.65673828 C-58.29143583 380.78484898 -60.7649938 383.88548221 -64.5625 387.3125 C-69.40406623 390.66435355 -74.31278277 390.47985895 -80 390 C-85.18479602 388.23912588 -87.86460732 385.4418063 -91 381 C-93.33341732 375.63917046 -93.34280728 370.535016 -93.4140625 364.7890625 C-93.43342865 363.82092621 -93.4527948 362.85278992 -93.4727478 361.85531616 C-93.5322833 358.7786323 -93.5788247 355.70191049 -93.625 352.625 C-93.66320373 350.53253623 -93.70225685 348.44008778 -93.7421875 346.34765625 C-93.83796345 341.23189604 -93.92209042 336.11606224 -94 331 C-94.76699219 331.78761719 -95.53398438 332.57523437 -96.32421875 333.38671875 C-100.32267863 337.29178395 -103.35113991 338.84296571 -108.9375 339.375 C-113.70312799 339.15672696 -117.88859919 337.94382932 -121.4765625 334.640625 C-125.69785028 329.85156167 -127.26855713 325.62502576 -127.16015625 319.31787109 C-127.14774902 318.19835052 -127.1353418 317.07882996 -127.12255859 315.92538452 C-127.09282959 314.11767075 -127.09282959 314.11767075 -127.0625 312.2734375 C-127.05355293 309.68750728 -127.04712708 307.10156735 -127.04296875 304.515625 C-127.03158537 300.46508237 -127.00557871 296.41607864 -126.92822266 292.36621094 C-126.65275587 275.53581167 -127.47847323 263.13853413 -136.81011963 248.89624023 C-139.56029446 244.51345329 -141.31861768 239.61813855 -143.1875 234.8125 C-143.80165771 233.24858521 -143.80165771 233.24858521 -144.42822266 231.65307617 C-151.37359486 213.57743919 -156.20539889 195.15413041 -159 176 C-159.11714355 175.20319824 -159.23428711 174.40639648 -159.35498047 173.58544922 C-165.59393215 129.17115872 -157.25594773 82.32849064 -130.5625 45.625 C-98.41425812 4.68843802 -51.11639108 -12.23866748 0 0 Z " fill="#FE5364" transform="translate(169,37)"/>
<path d="M0 0 C2.56757393 2.01999147 3.83465201 3.20594419 4.50793457 6.43927002 C4.51111694 7.34779724 4.51429932 8.25632446 4.51757812 9.19238281 C4.53018677 10.22735901 4.54279541 11.26233521 4.55578613 12.32867432 C4.54768921 13.44224304 4.53959229 14.55581177 4.53125 15.703125 C4.53699036 17.4307608 4.53699036 17.4307608 4.54284668 19.19329834 C4.54556875 21.63099033 4.53818711 24.06871137 4.52148438 26.50634766 C4.50015868 30.22235055 4.52123762 33.93640264 4.546875 37.65234375 C4.54423025 40.02344175 4.53910224 42.39453853 4.53125 44.765625 C4.53934692 45.8710968 4.54744385 46.9765686 4.55578613 48.11553955 C4.4622863 55.88394155 3.12880132 60.96398917 -1.7109375 67.20703125 C-7.83577153 73.11620211 -13.49243695 75.98242963 -22.0625 76.125 C-25.06228067 76.02976887 -27.18661633 75.78950187 -30 75 C-30.52787109 75.87011719 -30.52787109 75.87011719 -31.06640625 76.7578125 C-35.91507716 84.4295999 -41.05292876 90.31587863 -50 93 C-58.04837557 94.11610755 -64.3480014 92.69152882 -71 88 C-76.4951021 83.05337325 -80.50566414 77.56315895 -81.31616211 70.08154297 C-81.47483688 66.67397054 -81.50758871 63.28612718 -81.5 59.875 C-81.52835937 58.70839844 -81.55671875 57.54179687 -81.5859375 56.33984375 C-81.607692 46.84400283 -81.607692 46.84400283 -78.6875 43.734375 C-75.11297708 41.42756079 -73.17732641 41.25404885 -69 42 C-66.3125 43.8203125 -66.3125 43.8203125 -64 47 C-63.19699126 51.84374112 -63.47135888 56.73526647 -63.55078125 61.62890625 C-63.56616403 67.83525234 -63.56616403 67.83525234 -60.6953125 73.21484375 C-58.03495232 75.32437476 -58.03495232 75.32437476 -54.375 75.0625 C-50.62116733 73.88073786 -49.91600645 73.3074856 -48 70 C-47.57970803 67.47697049 -47.57970803 67.47697049 -47.6640625 64.75390625 C-47.65117187 63.75166016 -47.63828125 62.74941406 -47.625 61.71679688 C-47.625 59.617824 -47.63278369 57.51883638 -47.6484375 55.41992188 C-47.52985669 47.72699193 -47.52985669 47.72699193 -44.6796875 43.81640625 C-41.11922179 41.40297104 -39.21888164 41.24662828 -35 42 C-30.42307828 45.2246494 -29.12224616 48.80041255 -27.7734375 54.01171875 C-27.07799551 56.36280999 -27.07799551 56.36280999 -24 58 C-19.35546149 57.79426439 -19.35546149 57.79426439 -15.30430603 55.74667358 C-13.59496353 53.45759163 -13.62788331 52.08249312 -13.63110352 49.24072266 C-13.62422012 48.27607086 -13.61733673 47.31141907 -13.61024475 46.3175354 C-13.61948219 44.75656631 -13.61948219 44.75656631 -13.62890625 43.1640625 C-13.61152287 40.96354012 -13.5939385 38.76301932 -13.57617188 36.5625 C-13.56609684 33.09079062 -13.56250286 29.61918433 -13.56420898 26.14746094 C-13.5606402 22.79851439 -13.53329826 19.45036701 -13.50390625 16.1015625 C-13.51208878 15.0649649 -13.5202713 14.02836731 -13.52870178 12.96035767 C-13.454135 5.74590032 -13.454135 5.74590032 -11.09350586 1.86865234 C-7.23972739 -1.5712101 -4.9881735 -1.11803889 0 0 Z " fill="#DF4D60" transform="translate(448,129)"/>
<path d="M0 0 C2.69990662 1.79993774 4.5418865 3.083773 6 6 C6.10327209 7.55662751 6.14589059 9.11748559 6.15771484 10.67749023 C6.16797699 11.64867294 6.17823914 12.61985565 6.18881226 13.62046814 C6.19611359 14.67254959 6.20341492 15.72463104 6.2109375 16.80859375 C6.23899978 19.02149185 6.2676642 21.23438239 6.296875 23.44726562 C6.33820384 26.9476709 6.37507836 30.4479339 6.40136719 33.94848633 C6.42889369 37.31882135 6.47476006 40.68850691 6.5234375 44.05859375 C6.52669037 45.10865097 6.52994324 46.15870819 6.53329468 47.24058533 C6.55814438 48.70208763 6.55814438 48.70208763 6.58349609 50.19311523 C6.59562637 51.47979347 6.59562637 51.47979347 6.60800171 52.79246521 C7.0844009 55.47530291 7.85645606 56.36553504 10 58 C12.17264127 58.50999098 12.17264127 58.50999098 14.5 58.4375 C15.2734375 58.45683594 16.046875 58.47617188 16.84375 58.49609375 C19.12738358 58.18023453 19.12738358 58.18023453 20.61157227 56.296875 C22.26930362 53.55449122 22.36855823 51.93879686 22.37109375 48.75390625 C22.38849609 47.75166016 22.40589844 46.74941406 22.42382812 45.71679688 C22.43292572 43.6178518 22.43814861 41.51888626 22.43945312 39.41992188 C22.58243938 31.74303909 22.58243938 31.74303909 24.7890625 27.81640625 C27.43514046 25.64250828 29.51031429 25.40337347 32.90234375 25.3359375 C36.49691038 26.47388224 37.80304776 27.91748383 40 31 C40.69548264 34.93025898 40.60625993 38.77008253 40.5 42.75 C40.50386719 44.32007813 40.50386719 44.32007813 40.5078125 45.921875 C40.38648403 55.62815227 38.70793638 63.09485868 31.97265625 70.2734375 C26.17862802 75.34464637 19.3655665 77.42543343 11.765625 77.34765625 C4.65865537 76.454266 -1.48329028 72.44662054 -6 67 C-9.84814847 61.76224237 -11.10124437 58.26269955 -11.19287109 51.85180664 C-11.20893402 50.82716812 -11.22499695 49.8025296 -11.24154663 48.74684143 C-11.28611941 44.08327028 -11.32702684 39.41983771 -11.35009766 34.75610352 C-11.3666878 32.29539554 -11.39401746 29.83473634 -11.43212891 27.37426758 C-11.48681865 23.82347665 -11.50875675 20.27381125 -11.5234375 16.72265625 C-11.54610687 15.62357437 -11.56877625 14.52449249 -11.59213257 13.3921051 C-11.57102035 5.77853982 -11.57102035 5.77853982 -8.65478516 1.80249023 C-5.38012734 -0.42086811 -3.88190559 -0.7278573 0 0 Z " fill="#DF4D60" transform="translate(182,111)"/>
<path d="M0 0 C2.98721358 2.05661406 4.74514344 3.67064901 5.4446106 7.31912231 C5.60968385 10.24573563 5.61314631 13.13549144 5.56640625 16.06640625 C5.57204086 17.13745102 5.57767548 18.20849579 5.58348083 19.31199646 C5.59993274 22.729277 5.58437916 26.14526424 5.5625 29.5625 C5.54591923 32.98318402 5.53678614 36.40301838 5.55223083 39.82371521 C5.56152833 41.95055905 5.552289 44.07758198 5.52259827 46.20423889 C5.46421642 51.76859878 5.46421642 51.76859878 7.80444336 56.65991211 C10.98263319 58.59976355 13.35402199 58.39774306 17 58 C20.24849977 56.27773504 20.24849977 56.27773504 21 53 C21.0795752 51.28533961 21.10833714 49.568066 21.10546875 47.8515625 C21.12029297 46.84609375 21.13511719 45.840625 21.15039062 44.8046875 C21.17503743 42.69284573 21.18039143 40.58068666 21.16601562 38.46875 C21.32394195 30.98399935 21.32394195 30.98399935 23.26171875 28.16357422 C26.09690231 25.65532276 27.83168184 25.00580407 31.625 24.875 C35.86229002 26.28743001 36.78504166 27.11194009 39 31 C39.59839842 35.09071599 39.55752357 39.12268395 39.5 43.25 C39.51546875 44.34441406 39.5309375 45.43882812 39.546875 46.56640625 C39.50156877 56.02408094 37.23723272 63.51741341 30.66796875 70.4921875 C24.34363614 76.20926569 18.03484841 76.69587023 9.6328125 76.4453125 C2.01303414 75.51127515 -2.86279895 71.79445505 -7.7109375 66.0390625 C-12.11404681 59.07414413 -12.46724595 53.22395549 -12.46875 45.1171875 C-12.47636353 43.98475616 -12.48397705 42.85232483 -12.49182129 41.68557739 C-12.50259294 39.30033568 -12.50548739 36.91504692 -12.50097656 34.52978516 C-12.50000127 30.87973928 -12.54172199 27.23177562 -12.5859375 23.58203125 C-12.59114259 21.26042104 -12.59383273 18.93880354 -12.59375 16.6171875 C-12.61014526 15.52751678 -12.62654053 14.43784607 -12.64343262 13.31515503 C-12.57465301 5.78996634 -12.57465301 5.78996634 -9.68164062 1.81298828 C-6.11947349 -0.59530134 -4.21773001 -0.75316607 0 0 Z " fill="#DF4D60" transform="translate(217,299)"/>
<path d="M0 0 C2.54082293 2.17667512 3.82583535 3.94233814 4.37533569 7.27932739 C4.54363385 10.14179049 4.5796283 12.9802393 4.57421875 15.84765625 C4.58838333 16.89650497 4.60254791 17.9453537 4.61714172 19.02598572 C4.65901611 22.37159502 4.67427536 25.71666563 4.6875 29.0625 C4.7165771 32.41165375 4.75114809 35.76067173 4.78999329 39.10972595 C4.81243637 41.19198981 4.82828266 43.27433749 4.83683777 45.35670471 C4.84387222 46.30126022 4.85090668 47.24581573 4.8581543 48.21899414 C4.86163376 49.04774551 4.86511322 49.87649689 4.86869812 50.73036194 C4.99676501 52.94408114 5.38631975 54.87434065 6 57 C7.60320974 57.19551338 9.20762986 57.38111983 10.8125 57.5625 C11.70582031 57.66691406 12.59914062 57.77132812 13.51953125 57.87890625 C16.13375572 58.15658709 16.13375572 58.15658709 19 57 C19.99544991 54.01365027 20.12405487 52.00494151 20.140625 48.88671875 C20.15996094 47.88576172 20.17929688 46.88480469 20.19921875 45.85351562 C20.23288189 43.75474809 20.25128737 41.65567648 20.25390625 39.55664062 C20.46330735 30.96568509 20.46330735 30.96568509 23.328125 27.3125 C26 25 26 25 29.5 24.3125 C32.85075455 24.97068393 34.63077399 25.59039366 36.97021484 28.08032227 C39.41358197 32.63513396 38.66151636 38.28942694 38.5625 43.3125 C38.57345703 44.51068359 38.58441406 45.70886719 38.59570312 46.94335938 C38.51760103 56.39371347 36.64354083 62.96566265 30 70 C22.66078947 75.46536954 16.97851955 76.59597677 8 76 C1.90036975 74.96616436 -2.64378051 72.32882188 -7 68 C-10.6964171 62.6516039 -13.10404041 57.61097854 -13.17700195 51.05712891 C-13.18983719 50.05243561 -13.20267242 49.04774231 -13.21589661 48.01260376 C-13.22328354 46.92821014 -13.23067047 45.84381653 -13.23828125 44.7265625 C-13.246353 43.61066742 -13.25442474 42.49477234 -13.26274109 41.34506226 C-13.27657617 38.98298698 -13.2873009 36.62089176 -13.29516602 34.25878906 C-13.31239935 30.64610032 -13.35629434 27.03432178 -13.40039062 23.421875 C-13.41051582 21.1276109 -13.41903247 18.83333902 -13.42578125 16.5390625 C-13.44328934 15.45871735 -13.46079742 14.37837219 -13.47883606 13.26528931 C-13.45711564 5.75929673 -13.45711564 5.75929673 -11.09838867 1.84130859 C-7.23655192 -1.54740261 -4.96482499 -1.19840603 0 0 Z " fill="#DF4D60" transform="translate(124,214)"/>
<path d="M0 0 C3.01889247 2.06302447 4.745153 3.69323599 5.46072388 7.36242676 C5.64698959 10.36229563 5.66644415 13.32264064 5.62890625 16.328125 C5.63131821 17.43170349 5.63373016 18.53528198 5.63621521 19.67230225 C5.63523666 22.00569248 5.62184149 24.33910589 5.59692383 26.67236328 C5.56275213 30.22379597 5.57623273 33.77272045 5.59570312 37.32421875 C5.58880041 39.59636467 5.57912419 41.86850419 5.56640625 44.140625 C5.57136612 45.1940509 5.57632599 46.24747681 5.58143616 47.33282471 C5.43290848 56.7515103 2.80150906 64.35307069 -4 71 C-11.85899171 75.80785375 -19.59502624 77.45525453 -28.69921875 75.38671875 C-36.40089874 72.70941193 -40.67855614 68.05435265 -44.6640625 61.09375 C-46.96197469 55.46232114 -46.47249382 49.29008074 -46.4375 43.3125 C-46.45748047 42.08982422 -46.47746094 40.86714844 -46.49804688 39.60742188 C-46.49740234 38.43373047 -46.49675781 37.26003906 -46.49609375 36.05078125 C-46.49794678 34.98512939 -46.4997998 33.91947754 -46.50170898 32.8215332 C-45.87660412 29.30604077 -44.79710617 28.1573209 -42 26 C-38.5625 25 -38.5625 25 -35 25 C-32.19810554 26.76641172 -30.48475089 28.03049822 -29 31 C-28.89443503 32.69303684 -28.84469573 34.38973633 -28.82421875 36.0859375 C-28.80037109 37.09914063 -28.77652344 38.11234375 -28.75195312 39.15625 C-28.70914482 41.29407064 -28.67780728 43.43215317 -28.65820312 45.5703125 C-28.63048828 46.58609375 -28.60277344 47.601875 -28.57421875 48.6484375 C-28.55963623 49.57833496 -28.54505371 50.50823242 -28.5300293 51.46630859 C-27.84175294 54.75646614 -26.63183662 55.96258177 -24 58 C-19.26360181 58.62344572 -19.26360181 58.62344572 -15.125 56.625 C-13.11883574 53.72720717 -12.87596217 51.93295557 -12.87402344 48.44604492 C-12.87021667 47.50133835 -12.86640991 46.55663177 -12.86248779 45.58329773 C-12.86146057 44.55936417 -12.86043335 43.5354306 -12.859375 42.48046875 C-12.84104745 40.32225507 -12.82147719 38.16405165 -12.80078125 36.00585938 C-12.77179826 32.59544594 -12.74999974 29.18569113 -12.74951172 25.77514648 C-12.74617946 22.4888228 -12.71163996 19.20402742 -12.671875 15.91796875 C-12.6789447 14.90010788 -12.6860144 13.88224701 -12.69329834 12.83354187 C-12.61192728 8.10376165 -12.55173307 5.74648627 -9.67675781 1.85668945 C-6.12289985 -0.60838623 -4.23994296 -0.75713267 0 0 Z " fill="#DF4D60" transform="translate(379,265)"/>
<path d="M0 0 C2.07658223 3.41152795 2.48507826 4.95458262 1.75 8.875 C-0.04993774 11.57490662 -1.333773 13.4168865 -4.25 14.875 C-6.33900367 15.18510285 -8.4286503 15.49155811 -10.52148438 15.7746582 C-28.45649602 18.24744276 -43.57981303 24.89644152 -57.25 36.875 C-58.28253906 37.76445313 -58.28253906 37.76445313 -59.3359375 38.671875 C-66.38202907 45.18881345 -71.11208008 53.48193197 -75.90234375 61.71484375 C-77.50859701 64.28950477 -78.32719548 65.06310986 -81.25 65.875 C-85.43519447 65.80026438 -87.53378219 65.48378514 -90.75 62.75 C-92.25979596 59.85622441 -92.7430274 58.21792603 -92.046875 55.015625 C-84.85789499 35.70405124 -67.74777542 19.87942285 -50.25 9.875 C-49.26257813 9.31039062 -48.27515625 8.74578125 -47.2578125 8.1640625 C-35.38876322 1.8274698 -12.38632992 -8.09875418 0 0 Z " fill="#ECEDEE" transform="translate(143.25,62.125)"/>
<path d="M0 0 C4.00306491 1.82135351 7.57825402 4.28958407 11.22265625 6.7265625 C12.27373817 7.42632706 12.27373817 7.42632706 13.34605408 8.14022827 C14.83033679 9.12929688 16.3138447 10.11952905 17.79663086 11.11083984 C20.02817271 12.6020609 22.26290106 14.08840675 24.49804688 15.57421875 C46.50327916 30.23577913 46.50327916 30.23577913 51 35 C34.82151006 28.94804636 20.49937671 17.39109874 7 6.875 C6.40638672 6.41375732 5.81277344 5.95251465 5.20117188 5.47729492 C1.12459921 2.24919842 1.12459921 2.24919842 0 0 Z " fill="#DB5A6D" transform="translate(114,387)"/>
</svg>
